<svg aria-hidden="true" style="position: absolute; width: 0; height: 0; overflow: hidden;" version="1.1" xmlns="http://www.w3.org/2000/svg" xmlns:xlink="http://www.w3.org/1999/xlink">
<defs>
<symbol id="icon-Group2" viewBox="0 0 113 32">
<path fill="#b9b9b9" style="fill: var(--color1, #b9b9b9)" d="M12.222 5.172v8.809h-8.289v-8.809h-3.933v21.028h3.934v-8.523h8.287v8.523h3.935v-21.028h-3.934zM28.747 19.404c0 0.843-0.343 1.651-0.953 2.247s-1.438 0.931-2.302 0.931c-0.863 0-1.691-0.335-2.302-0.931s-0.953-1.404-0.953-2.247v-9.007h-3.731v9.007c0 1.807 0.735 3.54 2.044 4.818s3.084 1.996 4.935 1.996c1.851 0 3.626-0.718 4.935-1.996s2.044-3.011 2.044-4.818v-9.007h-3.718v9.007zM56.396 11.325c0-1.847 1.251-2.432 2.621-2.432 1.105 0 2.564 0.821 3.519 1.817l2.443-2.813c-1.22-1.611-3.694-2.724-5.72-2.724-4.049 0-6.976 2.315-6.976 6.152 0 7.12 8.913 4.86 8.913 8.845 0 1.229-1.222 2.314-2.621 2.314-2.207 0-2.922-1.053-3.936-2.167l-2.713 2.753c1.735 2.079 3.875 3.135 6.438 3.135 3.846 0 6.94-2.343 6.94-6.006 0-7.904-8.914-5.447-8.914-8.874h0.006zM111.536 22.841c-2.204 0-2.832-0.931-2.832-2.357v-6.314h3.428v-3.199h-3.428v-4.221l-3.783 1.658v12.862c0 3.29 2.325 4.948 5.512 4.948 0.5 0.008 1.001-0.031 1.492-0.116l0.923-3.318c-0.416 0.028-0.894 0.056-1.313 0.056v0.003zM42.951 10.501c-1.848 0-3.138 0.524-4.386 1.718v-6.921h-3.737v12.829c0 4.802 3.556 8.093 7.552 8.093 4.433 0 8.333-3.349 8.333-7.858 0-4.453-3.589-7.858-7.762-7.858v-0.003zM42.927 22.548c-0.557 0-1.108-0.107-1.623-0.315s-0.982-0.513-1.376-0.897c-0.394-0.385-0.706-0.841-0.919-1.343s-0.323-1.041-0.323-1.585 0.11-1.082 0.323-1.584c0.213-0.502 0.526-0.959 0.919-1.343s0.861-0.689 1.376-0.898c0.515-0.208 1.066-0.315 1.623-0.315 1.125 0 2.204 0.436 2.999 1.213s1.242 1.83 1.242 2.928c0 1.098-0.447 2.151-1.242 2.928s-1.874 1.213-2.999 1.213v0zM83.533 18.171c0-4.517-3.891-7.858-8.333-7.858-3.995 0-7.552 3.29-7.552 8.093v12.837h3.737v-6.931c1.246 1.192 2.538 1.718 4.384 1.718 4.173 0 7.763-3.405 7.763-7.859h0.001zM79.995 18.125c0 1.098-0.447 2.151-1.242 2.928s-1.874 1.213-2.999 1.213c-1.125 0-2.203-0.436-2.999-1.213s-1.242-1.83-1.242-2.928c0-1.098 0.447-2.151 1.242-2.928s1.874-1.213 2.999-1.213 2.203 0.436 2.999 1.213c0.795 0.776 1.242 1.83 1.242 2.928z"></path>
<path fill="#b9b9b9" style="fill: var(--color1, #b9b9b9)" d="M95.609 10.136v-3.666c0.496-0.226 0.916-0.586 1.211-1.036s0.453-0.974 0.455-1.508v-0.084c0-1.559-1.295-2.823-2.891-2.823h-0.087c-0.766 0-1.502 0.297-2.044 0.827s-0.847 1.247-0.847 1.996v0.084c0.003 0.535 0.16 1.058 0.456 1.508s0.716 0.81 1.211 1.036v3.666c-1.426 0.213-2.769 0.79-3.893 1.673l-10.298-7.831c0.073-0.259 0.112-0.525 0.116-0.792 0.001-0.629-0.189-1.245-0.546-1.768s-0.865-0.932-1.46-1.174-1.25-0.306-1.882-0.184c-0.632 0.122-1.213 0.424-1.67 0.868s-0.768 1.010-0.894 1.627c-0.127 0.617-0.063 1.257 0.183 1.838s0.663 1.079 1.198 1.429c0.535 0.35 1.165 0.538 1.809 0.538 0.564-0.003 1.117-0.15 1.604-0.426l10.14 7.704c-0.911 1.344-1.386 2.924-1.364 4.535s0.541 3.178 1.489 4.497l-3.084 3.012c-0.249-0.078-0.509-0.119-0.771-0.123-0.529 0-1.046 0.154-1.486 0.441s-0.782 0.695-0.984 1.172c-0.202 0.477-0.255 1.002-0.152 1.509s0.358 0.972 0.732 1.337 0.85 0.614 1.369 0.715c0.519 0.101 1.057 0.049 1.545-0.148s0.907-0.532 1.201-0.961c0.294-0.429 0.451-0.934 0.452-1.45-0.003-0.256-0.046-0.509-0.126-0.752l3.051-2.98c0.995 0.748 2.152 1.263 3.383 1.507s2.501 0.209 3.717-0.101 2.341-0.887 3.292-1.688c0.951-0.801 1.701-1.803 2.194-2.931s0.715-2.35 0.649-3.575c-0.067-1.224-0.419-2.418-1.029-3.488s-1.466-1.991-2.497-2.69c-1.032-0.699-2.213-1.158-3.455-1.342v0zM94.343 22.193c-0.563 0.015-1.125-0.080-1.65-0.28s-1.005-0.501-1.409-0.885c-0.404-0.384-0.726-0.843-0.945-1.351s-0.333-1.053-0.333-1.603 0.113-1.096 0.333-1.603c0.22-0.507 0.541-0.967 0.945-1.351s0.883-0.685 1.409-0.885c0.526-0.2 1.087-0.296 1.65-0.28 1.094 0.037 2.128 0.487 2.888 1.255s1.185 1.794 1.186 2.861c0 1.068-0.423 2.094-1.182 2.863s-1.795 1.22-2.887 1.258z"></path>
</symbol>
<symbol id="icon-Layer_21" viewBox="0 0 262 32">
<path fill="#b9b9b9" style="fill: var(--color1, #b9b9b9)" d="M143.552 12.799c0 3.784 1.807 6.821 8.87 8.15 4.216 0.861 5.098 1.528 5.098 2.899s-0.882 2.195-3.876 2.195c-3.588-0.063-7.105-0.993-10.237-2.706v6.196c2.127 1.017 4.936 2.157 10.175 2.157 7.388 0 10.318-3.212 10.318-7.994l-20.346-10.898zM163.898 23.697c0-4.508-2.446-6.622-9.354-8.074-3.814-0.823-4.739-1.646-4.739-2.838 0-1.49 1.366-2.114 3.876-2.114 3.051 0 6.061 0.903 8.914 2.157v-5.908c-2.735-1.216-5.715-1.819-8.721-1.764-6.826 0-10.358 2.899-10.358 7.644z"></path>
<path fill="#b9b9b9" style="fill: var(--color1, #b9b9b9)" d="M244.070 31.298v-19.634l2.369 5.212 7.95 14.422h7.064v-25.75h-5.621v16.621l-2.126-4.825-6.386-11.797h-8.87v25.75h5.619z"></path>
<path fill="#b9b9b9" style="fill: var(--color1, #b9b9b9)" d="M196.562 5.548h6.143v25.75h-6.143v-25.75z"></path>
<path fill="#b9b9b9" style="fill: var(--color1, #b9b9b9)" d="M189.475 23.697c0-4.508-2.446-6.622-9.355-8.074-3.812-0.823-4.737-1.646-4.737-2.838 0-1.49 1.366-2.114 3.875-2.114 3.053 0 6.061 0.903 8.914 2.157v-5.908c-2.735-1.216-5.714-1.819-8.719-1.764-6.827 0-10.358 2.899-10.358 7.644 0 3.784 1.807 6.821 8.871 8.15 4.214 0.861 5.096 1.528 5.096 2.899s-0.882 2.195-3.876 2.195c-3.588-0.063-7.105-0.993-10.237-2.706v6.196c2.127 1.017 4.938 2.157 10.175 2.157 7.388 0 10.319-3.212 10.319-7.994z"></path>
<path fill="#b9b9b9" style="fill: var(--color1, #b9b9b9)" d="M108.467 31.298l1.986-5.562h-8.43v-20.187h-6.182v25.75h12.625z"></path>
<path fill="#b9b9b9" style="fill: var(--color1, #b9b9b9)" d="M77.723 11.115v20.183h6.182v-20.183h7.306v-5.567h-20.314v5.567h6.826z"></path>
<path fill="#b9b9b9" style="fill: var(--color1, #b9b9b9)" d="M61.934 5.548h-8.1l-9.205 25.75h7.049l1.289-4.337c3.216 0.925 6.638 0.925 9.854 0l1.303 4.337h7.025l-9.215-25.75zM57.884 22.32c-1.148 0.002-2.29-0.158-3.391-0.473l3.391-11.243 3.391 11.243c-1.102 0.315-2.243 0.475-3.391 0.473v0z"></path>
<path fill="#b9b9b9" style="fill: var(--color1, #b9b9b9)" d="M130.229 5.548h-8.1l-9.205 25.75h7.025l1.313-4.337c3.21 0.921 6.624 0.921 9.835 0l1.303 4.337h7.025l-9.195-25.75zM126.179 22.32c-1.148 0.002-2.29-0.158-3.391-0.473l3.391-11.243 3.391 11.243c-1.101 0.315-2.243 0.475-3.391 0.473v0z"></path>
<path fill="#b9b9b9" style="fill: var(--color1, #b9b9b9)" d="M224.835 5.548h-8.1l-9.205 25.75h7.025l1.313-4.337c3.21 0.921 6.624 0.921 9.834 0l1.304 4.337h7.025l-9.195-25.75zM220.785 22.32c-1.148 0.002-2.29-0.158-3.392-0.473l3.392-11.243 3.391 11.243c-1.101 0.315-2.243 0.475-3.391 0.473v0z"></path>
<path fill="#b9b9b9" style="fill: var(--color1, #b9b9b9)" d="M9.222 14.604v-0c-0.083-0.094-0.187-0.168-0.305-0.214s-0.245-0.064-0.372-0.053c-0.107 0.019-0.207 0.064-0.291 0.13s-0.151 0.152-0.193 0.25l-7.987 15.587c-0.053 0.104-0.079 0.22-0.073 0.336s0.041 0.23 0.104 0.329c0.063 0.099 0.15 0.181 0.254 0.238s0.222 0.087 0.341 0.087h11.121c0.13 0.003 0.258-0.032 0.369-0.099s0.199-0.164 0.254-0.28c2.336-4.707 0.891-12.022-3.221-16.31v0z"></path>
<path fill="#b9b9b9" style="fill: var(--color1, #b9b9b9)" d="M32 30.309c-0.15-0.293-14.964-29.232-15.328-29.952-0.048-0.101-0.122-0.187-0.216-0.25s-0.203-0.1-0.317-0.107l-0.025-0c-0.13 0.007-0.256 0.045-0.366 0.112s-0.201 0.161-0.264 0.272l-0.001 0.001c-4.016 6.211-4.471 13.71-1.217 20.060l5.361 10.467c0.057 0.116 0.146 0.213 0.257 0.281s0.24 0.105 0.371 0.105h11.119c0.119 0 0.237-0.030 0.341-0.086s0.192-0.139 0.255-0.238 0.098-0.212 0.104-0.329c0.005-0.116-0.020-0.232-0.073-0.336v0z"></path>
</symbol>
<symbol id="icon-Layer_2" viewBox="0 0 262 32">
<path fill="#b9b9b9" style="fill: var(--color1, #b9b9b9)" d="M143.552 12.845c0 3.797 1.807 6.845 8.87 8.179 4.216 0.864 5.098 1.533 5.098 2.91s-0.882 2.203-3.876 2.203c-3.588-0.064-7.105-0.996-10.237-2.715v6.218c2.127 1.021 4.936 2.164 10.175 2.164 7.388 0 10.318-3.223 10.318-8.022l-20.346-10.937zM163.898 23.781c0-4.524-2.446-6.646-9.354-8.103-3.814-0.826-4.739-1.652-4.739-2.848 0-1.495 1.366-2.122 3.876-2.122 3.051 0 6.061 0.907 8.914 2.165v-5.929c-2.735-1.22-5.715-1.825-8.721-1.771-6.826 0-10.358 2.91-10.358 7.671z"></path>
<path fill="#b9b9b9" style="fill: var(--color1, #b9b9b9)" d="M244.070 31.41v-19.704l2.369 5.231 7.95 14.473h7.064v-25.842h-5.621v16.68l-2.126-4.842-6.386-11.839h-8.87v25.842h5.619z"></path>
<path fill="#b9b9b9" style="fill: var(--color1, #b9b9b9)" d="M196.562 5.568h6.143v25.842h-6.143v-25.842z"></path>
<path fill="#b9b9b9" style="fill: var(--color1, #b9b9b9)" d="M189.475 23.781c0-4.524-2.446-6.646-9.355-8.103-3.812-0.826-4.737-1.652-4.737-2.848 0-1.495 1.366-2.122 3.875-2.122 3.053 0 6.061 0.907 8.914 2.165v-5.929c-2.735-1.22-5.714-1.825-8.719-1.771-6.827 0-10.358 2.91-10.358 7.671 0 3.797 1.807 6.845 8.871 8.179 4.214 0.864 5.096 1.533 5.096 2.91s-0.882 2.203-3.876 2.203c-3.588-0.064-7.105-0.996-10.237-2.715v6.218c2.127 1.021 4.938 2.164 10.175 2.164 7.388 0 10.319-3.223 10.319-8.022z"></path>
<path fill="#b9b9b9" style="fill: var(--color1, #b9b9b9)" d="M108.467 31.41l1.986-5.582h-8.43v-20.259h-6.182v25.842h12.625z"></path>
<path fill="#b9b9b9" style="fill: var(--color1, #b9b9b9)" d="M77.723 11.155v20.255h6.182v-20.255h7.306v-5.587h-20.314v5.587h6.826z"></path>
<path fill="#b9b9b9" style="fill: var(--color1, #b9b9b9)" d="M61.934 5.568h-8.1l-9.205 25.842h7.049l1.289-4.353c3.216 0.928 6.638 0.928 9.854 0l1.303 4.353h7.025l-9.215-25.842zM57.884 22.4c-1.148 0.002-2.29-0.158-3.391-0.475l3.391-11.283 3.391 11.283c-1.102 0.316-2.243 0.476-3.391 0.475v0z"></path>
<path fill="#b9b9b9" style="fill: var(--color1, #b9b9b9)" d="M130.229 5.568h-8.1l-9.205 25.842h7.025l1.313-4.353c3.21 0.924 6.624 0.924 9.835 0l1.303 4.353h7.025l-9.195-25.842zM126.179 22.4c-1.148 0.002-2.29-0.158-3.391-0.475l3.391-11.283 3.391 11.283c-1.101 0.316-2.243 0.476-3.391 0.475v0z"></path>
<path fill="#b9b9b9" style="fill: var(--color1, #b9b9b9)" d="M224.835 5.568h-8.1l-9.205 25.842h7.025l1.313-4.353c3.21 0.924 6.624 0.924 9.834 0l1.304 4.353h7.025l-9.195-25.842zM220.785 22.4c-1.148 0.002-2.29-0.158-3.392-0.475l3.392-11.283 3.391 11.283c-1.101 0.316-2.243 0.476-3.391 0.475v0z"></path>
<path fill="#b9b9b9" style="fill: var(--color1, #b9b9b9)" d="M9.222 14.656v-0c-0.083-0.094-0.187-0.168-0.305-0.215s-0.245-0.065-0.372-0.053c-0.107 0.019-0.207 0.064-0.291 0.13s-0.151 0.153-0.193 0.251l-7.987 15.642c-0.053 0.105-0.079 0.221-0.073 0.338s0.041 0.23 0.104 0.33 0.15 0.182 0.254 0.238c0.104 0.057 0.222 0.087 0.341 0.087h11.121c0.13 0.003 0.258-0.032 0.369-0.099s0.199-0.165 0.254-0.28c2.336-4.724 0.891-12.065-3.221-16.369v0z"></path>
<path fill="#b9b9b9" style="fill: var(--color1, #b9b9b9)" d="M32 30.417c-0.15-0.294-14.964-29.337-15.328-30.059-0.048-0.101-0.122-0.188-0.216-0.251s-0.203-0.1-0.317-0.107l-0.025-0c-0.13 0.007-0.256 0.045-0.366 0.113s-0.201 0.161-0.264 0.273l-0.001 0.001c-4.016 6.233-4.471 13.759-1.217 20.131l5.361 10.505c0.057 0.116 0.146 0.214 0.257 0.282s0.24 0.105 0.371 0.105h11.119c0.119 0 0.237-0.030 0.341-0.087s0.192-0.139 0.255-0.238 0.098-0.213 0.104-0.33c0.005-0.117-0.020-0.233-0.073-0.338v0z"></path>
</symbol>
<symbol id="icon-Frame-38577" viewBox="0 0 105 32">
<path fill="#b9b9b9" style="fill: var(--color1, #b9b9b9)" d="M65.139 25.025c-6.102 4.548-14.946 6.975-22.56 6.975-10.677 0-20.289-3.994-27.561-10.636-0.571-0.522-0.059-1.234 0.626-0.827 7.848 4.618 17.551 7.396 27.574 7.396 6.76 0 14.196-1.414 21.034-4.35 1.033-0.444 1.897 0.684 0.887 1.442z"></path>
<path fill="#b9b9b9" style="fill: var(--color1, #b9b9b9)" d="M67.676 22.090c-0.777-1.008-5.156-0.476-7.121-0.24-0.599 0.074-0.69-0.453-0.151-0.832 3.487-2.482 9.21-1.766 9.877-0.934 0.667 0.837-0.174 6.638-3.451 9.406-0.503 0.425-0.983 0.199-0.759-0.365 0.736-1.858 2.386-6.023 1.604-7.035z"></path>
<path fill="#b9b9b9" style="fill: var(--color1, #b9b9b9)" d="M60.693 3.494c0 0.361 0.274 0.606 0.617 0.606h5.581l-6.413 9.3c-0.388 0.596-0.393 1.266-0.393 1.659v2.445c0 0.351 0.389 0.758 0.759 0.555 3.634-1.951 7.998-1.761 11.285-0.019 0.402 0.213 0.786-0.199 0.786-0.55v-2.575c-0.032-0.347-0.146-0.698-0.567-0.938-1.865-1.063-4.036-1.373-6.093-1.322l5.535-7.992c0.512-0.716 0.8-1.169 0.804-1.516v-2.066c0-0.361-0.274-0.61-0.617-0.61h-10.681c-0.329 0-0.603 0.245-0.603 0.61v2.413zM21.729 18.549c0.347 0 0.626-0.273 0.626-0.61v-8.939c0-1.951-0.091-4.65 2.244-4.65 2.308 0 2.002 2.769 2.002 4.65l0.005 8.939c0 0.324 0.256 0.587 0.585 0.61h3.245c0.347 0 0.626-0.273 0.626-0.61v-8.939c0-0.957-0.032-2.38 0.302-3.231s1.156-1.382 1.943-1.382c0.942 0 1.668 0.319 1.911 1.451 0.155 0.675 0.091 2.45 0.091 3.162v8.939c0 0.324 0.261 0.587 0.585 0.61h3.245c0.347 0 0.626-0.273 0.626-0.61l0.005-10.645c0-1.807 0.21-3.869-0.818-5.288-0.91-1.276-2.4-1.844-3.762-1.844-1.915 0-3.702 0.994-4.488 3.125-0.914-2.131-2.185-3.125-4.219-3.125-2.002 0-3.487 0.994-4.278 3.125h-0.059v-2.205c-0.023-0.305-0.274-0.55-0.59-0.564h-3.030c-0.347 0-0.626 0.268-0.626 0.606v16.867c0.023 0.301 0.27 0.536 0.58 0.559h3.25zM81.791 0.162c4.822 0 7.432 4.188 7.432 9.513 0 5.145-2.884 9.226-7.432 9.226-4.735 0-7.313-4.188-7.313-9.406 0-5.251 2.61-9.332 7.313-9.332zM81.818 3.605c-2.395 0-2.546 3.3-2.546 5.357 0 2.062-0.032 6.462 2.519 6.462 2.518 0 2.637-3.55 2.637-5.713 0-1.424-0.059-3.125-0.484-4.474-0.366-1.174-1.092-1.632-2.125-1.632h-0zM95.475 18.549c0.347 0 0.631-0.273 0.635-0.61v-9.083c0-1.137 0.059-2.163 0.517-3.194 0.36-0.814 1.087-1.35 1.878-1.35 2.245 0 2.034 2.7 2.034 4.544v9.161c0.032 0.287 0.279 0.509 0.576 0.532h3.258c0.32 0 0.59-0.236 0.626-0.532v-10.617c0-1.632 0-3.901-0.85-5.251-0.914-1.456-2.336-1.988-3.793-1.988-2.245 0-3.52 1.1-4.429 3.407h-0.059v-2.579c-0.064-0.263-0.297-0.458-0.581-0.471h-3.013c-0.329 0-0.599 0.24-0.626 0.55l0.005 16.871c0 0.324 0.261 0.587 0.585 0.61h3.237zM52.178 10.493v-0.712c-2.354 0-4.836 0.508-4.836 3.31 0 1.419 0.731 2.38 1.979 2.38 0.91 0 1.732-0.568 2.249-1.493 0.64-1.137 0.608-2.205 0.608-3.485zM55.455 18.503c-0.215 0.194-0.526 0.208-0.768 0.079-1.079-0.906-1.275-1.327-1.865-2.191-1.783 1.84-3.048 2.39-5.357 2.39-2.738 0-4.863-1.706-4.863-5.121 0-2.667 1.426-4.484 3.464-5.371 1.764-0.786 4.228-0.924 6.111-1.142v-0.425c0-0.781 0.059-1.706-0.398-2.381-0.393-0.605-1.152-0.855-1.824-0.855-1.239 0-2.34 0.642-2.61 1.974-0.055 0.296-0.27 0.587-0.567 0.601l-3.149-0.342c-0.265-0.060-0.562-0.277-0.484-0.689 0.722-3.864 4.178-5.029 7.267-5.029 1.581 0 3.647 0.425 4.895 1.636 1.581 1.493 1.431 3.485 1.431 5.653v5.121c0 1.539 0.631 2.214 1.225 3.046 0.206 0.296 0.251 0.652-0.014 0.874-0.663 0.559-1.842 1.599-2.491 2.182l-0.005-0.009h-0zM9.575 10.493v-0.712c-2.349 0-4.831 0.508-4.831 3.31 0 1.419 0.727 2.38 1.975 2.38 0.914 0 1.732-0.568 2.249-1.493 0.64-1.137 0.608-2.205 0.608-3.485zM12.852 18.503c-0.215 0.194-0.526 0.208-0.768 0.079-1.079-0.906-1.271-1.327-1.865-2.191-1.783 1.84-3.044 2.39-5.357 2.39-2.733 0-4.863-1.706-4.863-5.121 0-2.667 1.431-4.484 3.464-5.371 1.764-0.786 4.228-0.924 6.111-1.142v-0.425c0-0.781 0.059-1.706-0.393-2.381-0.398-0.605-1.156-0.855-1.824-0.855-1.239 0-2.345 0.642-2.614 1.974-0.055 0.296-0.27 0.587-0.562 0.601l-3.154-0.342c-0.265-0.060-0.558-0.277-0.484-0.689 0.727-3.864 4.178-5.029 7.267-5.029 1.581 0 3.647 0.425 4.895 1.636 1.581 1.493 1.431 3.485 1.431 5.653v5.121c0 1.539 0.631 2.214 1.225 3.046 0.21 0.296 0.256 0.652-0.009 0.874-0.663 0.559-1.842 1.599-2.491 2.182l-0.009-0.009z"></path>
</symbol>
<symbol id="icon-Dropbox_logo_2017-1" viewBox="0 0 161 32">
<path fill="#b9b9b9" style="fill: var(--color1, #b9b9b9)" d="M18.672 6.013l-9.336 6.013 9.336 6.013-9.336 6.013-9.336-6.046 9.336-6.013-9.336-5.981 9.336-6.013 9.336 6.013zM9.288 25.987l9.336-6.013 9.336 6.013-9.336 6.013-9.336-6.013zM18.672 18.007l9.336-6.013-9.336-5.981 9.288-6.013 9.336 6.013-9.336 6.013 9.336 6.013-9.336 6.013-9.288-6.046z"></path>
<path fill="#b9b9b9" style="fill: var(--color1, #b9b9b9)" d="M44.621 6.013h7.549c4.813 0 8.789 2.812 8.789 9.231v1.349c0 6.468-3.718 9.377-8.644 9.377h-7.694v-19.957zM48.839 9.637v12.693h3.236c2.736 0 4.572-1.804 4.572-5.818v-1.056c0-4.014-1.932-5.818-4.716-5.818h-3.091zM63.197 9.832h3.38l0.547 3.754c0.644-2.552 2.286-3.917 5.264-3.917h1.046v4.307h-1.738c-3.429 0-4.266 1.203-4.266 4.616v7.427h-4.169v-16.187h-0.064zM74.272 18.251v-0.455c0-5.412 3.429-8.37 8.097-8.37 4.765 0 8.097 2.958 8.097 8.37v0.455c0 5.314-3.236 8.175-8.097 8.175-5.167-0.049-8.097-2.844-8.097-8.175zM86.2 18.202v-0.406c0-3.007-1.497-4.811-3.879-4.811-2.334 0-3.879 1.658-3.879 4.811v0.406c0 2.909 1.497 4.567 3.879 4.567 2.382-0.049 3.879-1.658 3.879-4.567zM92.655 9.832h3.477l0.402 3.055c0.837-2.048 2.623-3.462 5.264-3.462 4.073 0 6.761 2.958 6.761 8.435v0.455c0 5.314-2.978 8.126-6.761 8.126-2.527 0-4.266-1.154-5.119-3.007v8.175h-4.073l0.048-21.778zM104.325 18.202v-0.358c0-3.218-1.642-4.811-3.831-4.811-2.334 0-3.879 1.804-3.879 4.811v0.309c0 2.86 1.497 4.664 3.831 4.664 2.399-0.049 3.88-1.593 3.88-4.616zM114.724 23.029l-0.355 2.958h-3.573v-21.566h4.073v8.272c0.902-2.113 2.688-3.267 5.215-3.267 3.831 0.049 6.665 2.714 6.665 8.077v0.504c0 5.363-2.688 8.435-6.761 8.435-2.688-0.065-4.427-1.316-5.263-3.413zM122.466 18.007v-0.406c0-2.958-1.593-4.616-3.831-4.616-2.286 0-3.879 1.853-3.879 4.664v0.358c0 3.007 1.545 4.762 3.831 4.762 2.447 0 3.879-1.544 3.879-4.762zM128.534 18.251v-0.455c0-5.412 3.429-8.37 8.097-8.37 4.765 0 8.097 2.958 8.097 8.37v0.455c0 5.314-3.283 8.175-8.097 8.175-5.167-0.049-8.097-2.844-8.097-8.175zM140.495 18.202v-0.406c0-3.007-1.497-4.811-3.879-4.811-2.334 0-3.88 1.658-3.88 4.811v0.406c0 2.909 1.497 4.567 3.88 4.567 2.398-0.049 3.879-1.658 3.879-4.567zM150.185 17.601l-5.617-7.768h4.813l3.236 4.859 3.283-4.859h4.765l-5.698 7.72 6.003 8.435h-4.716l-3.67-5.363-3.573 5.363h-4.926l6.1-8.386z"></path>
</symbol>
<symbol id="icon-Frame-101" viewBox="0 0 98 32">
<path fill="#b9b9b9" style="fill: var(--color1, #b9b9b9)" d="M41.913 16.84c0 4.604-3.629 7.996-8.082 7.996s-8.082-3.393-8.082-7.996c0-4.636 3.629-7.996 8.082-7.996s8.082 3.36 8.082 7.996zM38.376 16.84c0-2.877-2.103-4.845-4.544-4.845s-4.544 1.968-4.544 4.845c0 2.848 2.103 4.845 4.544 4.845s4.544-2.001 4.544-4.845z"></path>
<path fill="#b9b9b9" style="fill: var(--color1, #b9b9b9)" d="M59.347 16.84c0 4.604-3.629 7.996-8.082 7.996s-8.082-3.393-8.082-7.996c0-4.633 3.629-7.996 8.082-7.996s8.082 3.36 8.082 7.996zM55.809 16.84c0-2.877-2.103-4.845-4.544-4.845s-4.544 1.969-4.544 4.845c0 2.848 2.103 4.845 4.544 4.845s4.544-2.001 4.544-4.845z"></path>
<path fill="#b9b9b9" style="fill: var(--color1, #b9b9b9)" d="M76.055 9.326v14.356c0 5.905-3.509 8.317-7.657 8.317-3.905 0-6.255-2.592-7.141-4.712l3.080-1.273c0.548 1.302 1.892 2.837 4.057 2.837 2.655 0 4.3-1.626 4.3-4.687v-1.15h-0.123c-0.792 0.97-2.317 1.817-4.242 1.817-4.028 0-7.718-3.483-7.718-7.964 0-4.514 3.69-8.025 7.718-8.025 1.921 0 3.447 0.847 4.242 1.788h0.123v-1.302h3.36v-0.004zM72.946 16.869c0-2.816-1.892-4.874-4.301-4.874-2.441 0-4.486 2.059-4.486 4.874 0 2.787 2.045 4.817 4.486 4.817 2.408 0 4.301-2.030 4.301-4.817z"></path>
<path fill="#b9b9b9" style="fill: var(--color1, #b9b9b9)" d="M81.594 0.912v23.434h-3.451v-23.434h3.451z"></path>
<path fill="#b9b9b9" style="fill: var(--color1, #b9b9b9)" d="M95.041 19.472l2.746 1.817c-0.886 1.301-3.022 3.544-6.712 3.544-4.577 0-7.995-3.512-7.995-7.996 0-4.755 3.447-7.996 7.599-7.996 4.181 0 6.226 3.302 6.894 5.087l0.368 0.909-10.77 4.427c0.825 1.604 2.107 2.423 3.905 2.423 1.802 0 3.051-0.88 3.966-2.214zM86.588 16.595l7.199-2.967c-0.396-0.999-1.587-1.694-2.989-1.694-1.798 0-4.301 1.575-4.21 4.662v0z"></path>
<path fill="#b9b9b9" style="fill: var(--color1, #b9b9b9)" d="M12.687 14.76v-3.393h11.518c0.113 0.591 0.171 1.291 0.171 2.048 0 2.545-0.701 5.693-2.96 7.935-2.197 2.271-5.005 3.483-8.725 3.483-6.894 0-12.691-5.574-12.691-12.416s5.797-12.416 12.691-12.416c3.814 0 6.531 1.485 8.572 3.421l-2.412 2.394c-1.464-1.363-3.447-2.423-6.164-2.423-5.034 0-8.972 4.027-8.972 9.024s3.937 9.024 8.972 9.024c3.265 0 5.125-1.302 6.316-2.484 0.966-0.959 1.602-2.329 1.852-4.2l-8.169 0.004z"></path>
</symbol>
<symbol id="icon-Ellipse-14" viewBox="0 0 32 32">
<path fill="#edb32d" style="fill: var(--color1, #edb32d)" d="M32 16c0 8.837-7.163 16-16 16s-16-7.163-16-16c0-8.837 7.163-16 16-16s16 7.163 16 16z"></path>
</symbol>
<symbol id="icon-Frame-102" viewBox="0 0 98 32">
<path fill="#b9b9b9" style="fill: var(--color1, #b9b9b9)" d="M41.913 16.84c0 4.604-3.629 7.996-8.082 7.996s-8.082-3.393-8.082-7.996c0-4.636 3.629-7.996 8.082-7.996s8.082 3.36 8.082 7.996zM38.376 16.84c0-2.877-2.103-4.845-4.544-4.845s-4.544 1.968-4.544 4.845c0 2.848 2.103 4.845 4.544 4.845s4.544-2.001 4.544-4.845z"></path>
<path fill="#b9b9b9" style="fill: var(--color1, #b9b9b9)" d="M59.347 16.84c0 4.604-3.629 7.996-8.082 7.996s-8.082-3.393-8.082-7.996c0-4.633 3.629-7.996 8.082-7.996s8.082 3.36 8.082 7.996zM55.809 16.84c0-2.877-2.103-4.845-4.544-4.845s-4.544 1.969-4.544 4.845c0 2.848 2.103 4.845 4.544 4.845s4.544-2.001 4.544-4.845z"></path>
<path fill="#b9b9b9" style="fill: var(--color1, #b9b9b9)" d="M76.055 9.326v14.356c0 5.905-3.509 8.317-7.657 8.317-3.905 0-6.255-2.592-7.141-4.712l3.080-1.273c0.548 1.302 1.892 2.837 4.057 2.837 2.655 0 4.3-1.626 4.3-4.687v-1.15h-0.123c-0.792 0.97-2.317 1.817-4.242 1.817-4.028 0-7.718-3.483-7.718-7.964 0-4.514 3.69-8.025 7.718-8.025 1.921 0 3.447 0.847 4.242 1.788h0.123v-1.302h3.36v-0.004zM72.946 16.869c0-2.816-1.892-4.874-4.301-4.874-2.441 0-4.486 2.059-4.486 4.874 0 2.787 2.045 4.817 4.486 4.817 2.408 0 4.301-2.030 4.301-4.817z"></path>
<path fill="#b9b9b9" style="fill: var(--color1, #b9b9b9)" d="M81.594 0.912v23.434h-3.451v-23.434h3.451z"></path>
<path fill="#b9b9b9" style="fill: var(--color1, #b9b9b9)" d="M95.041 19.472l2.746 1.817c-0.886 1.301-3.022 3.544-6.712 3.544-4.577 0-7.995-3.512-7.995-7.996 0-4.755 3.447-7.996 7.599-7.996 4.181 0 6.226 3.302 6.894 5.087l0.368 0.909-10.77 4.427c0.825 1.604 2.107 2.423 3.905 2.423 1.802 0 3.051-0.88 3.966-2.214zM86.588 16.595l7.199-2.967c-0.396-0.999-1.587-1.694-2.989-1.694-1.798 0-4.301 1.575-4.21 4.662v0z"></path>
<path fill="#b9b9b9" style="fill: var(--color1, #b9b9b9)" d="M12.687 14.76v-3.393h11.518c0.113 0.591 0.171 1.291 0.171 2.048 0 2.545-0.701 5.693-2.96 7.935-2.197 2.271-5.005 3.483-8.725 3.483-6.894 0-12.691-5.574-12.691-12.416s5.797-12.416 12.691-12.416c3.814 0 6.531 1.485 8.572 3.421l-2.412 2.394c-1.464-1.363-3.447-2.423-6.164-2.423-5.034 0-8.972 4.027-8.972 9.024s3.937 9.024 8.972 9.024c3.265 0 5.125-1.302 6.316-2.484 0.966-0.959 1.602-2.329 1.852-4.2l-8.169 0.004z"></path>
</symbol>
<symbol id="icon-bx_support" viewBox="0 0 32 32">
<path fill="#f0e714" style="fill: var(--color1, #f0e714)" d="M16 2.667c-7.352 0-13.333 5.981-13.333 13.333v5.524c0 1.365 1.196 2.476 2.667 2.476h1.333c0.354 0 0.693-0.14 0.943-0.39s0.391-0.589 0.391-0.943v-6.857c0-0.354-0.14-0.693-0.391-0.943s-0.589-0.391-0.943-0.391h-1.211c0.741-5.16 5.181-9.143 10.544-9.143s9.803 3.983 10.544 9.143h-1.211c-0.354 0-0.693 0.14-0.943 0.391s-0.39 0.589-0.39 0.943v8.191c0 1.471-1.196 2.667-2.667 2.667h-2.667v-1.333h-5.333v4h8c2.941 0 5.333-2.392 5.333-5.333 1.471 0 2.667-1.111 2.667-2.476v-5.524c0-7.352-5.981-13.333-13.333-13.333z"></path>
</symbol>
<symbol id="icon-ant-design_team-outlined" viewBox="0 0 32 32">
<path fill="#f0e714" style="fill: var(--color1, #f0e714)" d="M25.756 21.872c-0.782-0.783-1.696-1.422-2.7-1.887 1.416-1.147 2.319-2.897 2.319-4.859 0-3.463-2.887-6.303-6.35-6.25-3.409 0.053-6.156 2.831-6.156 6.25 0 1.962 0.906 3.712 2.319 4.859-1.004 0.465-1.918 1.104-2.7 1.887-1.706 1.709-2.675 3.966-2.737 6.372-0.001 0.033 0.005 0.067 0.017 0.098s0.030 0.059 0.054 0.083 0.051 0.043 0.082 0.056c0.031 0.013 0.064 0.020 0.097 0.020h1.75c0.134 0 0.247-0.106 0.25-0.241 0.059-1.813 0.794-3.509 2.084-4.797 0.66-0.664 1.446-1.19 2.311-1.549s1.793-0.541 2.729-0.539c1.903 0 3.694 0.741 5.041 2.087 1.288 1.288 2.022 2.984 2.084 4.797 0.003 0.134 0.116 0.241 0.25 0.241h1.75c0.033 0 0.066-0.007 0.097-0.020s0.058-0.032 0.082-0.056 0.042-0.052 0.054-0.083c0.012-0.031 0.018-0.064 0.017-0.098-0.063-2.406-1.031-4.662-2.744-6.372zM19.125 19.125c-1.069 0-2.075-0.416-2.828-1.172-0.378-0.375-0.677-0.822-0.878-1.315s-0.301-1.021-0.294-1.554c0.009-1.025 0.419-2.016 1.134-2.75 0.75-0.769 1.753-1.197 2.825-1.209 1.059-0.009 2.087 0.403 2.844 1.144 0.775 0.759 1.2 1.775 1.2 2.856 0 1.069-0.416 2.072-1.172 2.828-0.371 0.373-0.812 0.668-1.298 0.869s-1.007 0.304-1.533 0.302zM11.297 15.95c-0.028-0.272-0.044-0.547-0.044-0.825 0-0.497 0.047-0.981 0.134-1.453 0.022-0.113-0.037-0.228-0.141-0.275-0.425-0.191-0.816-0.453-1.153-0.784-0.398-0.386-0.711-0.85-0.919-1.363s-0.307-1.064-0.291-1.618c0.028-1.003 0.431-1.956 1.134-2.675 0.772-0.791 1.809-1.222 2.912-1.209 0.997 0.009 1.959 0.394 2.688 1.075 0.247 0.231 0.459 0.487 0.637 0.763 0.063 0.097 0.184 0.138 0.291 0.1 0.55-0.191 1.131-0.325 1.728-0.388 0.175-0.019 0.275-0.206 0.197-0.362-1.016-2.009-3.091-3.397-5.491-3.434-3.466-0.053-6.353 2.788-6.353 6.247 0 1.963 0.903 3.713 2.319 4.859-0.994 0.459-1.909 1.094-2.703 1.887-1.713 1.709-2.681 3.966-2.744 6.375-0.001 0.033 0.005 0.067 0.017 0.098s0.030 0.059 0.054 0.083 0.051 0.043 0.082 0.056c0.031 0.013 0.064 0.020 0.097 0.020h1.753c0.134 0 0.247-0.106 0.25-0.241 0.059-1.813 0.794-3.509 2.084-4.797 0.919-0.919 2.044-1.556 3.272-1.866 0.122-0.031 0.203-0.147 0.188-0.272z"></path>
</symbol>
<symbol id="icon-uim_process" viewBox="0 0 32 32">
<path fill="#f0e714" style="fill: var(--color1, #f0e714)" d="M11.5 11.333h-6c-0.354 0-0.693-0.14-0.943-0.391s-0.391-0.589-0.391-0.943v-6c0-0.354 0.14-0.693 0.391-0.943s0.589-0.391 0.943-0.391c0.354 0 0.693 0.14 0.943 0.391s0.391 0.589 0.391 0.943v4.667h4.667c0.354 0 0.693 0.14 0.943 0.391s0.391 0.589 0.391 0.943c0 0.354-0.14 0.693-0.391 0.943s-0.589 0.391-0.943 0.391z"></path>
<path fill="#f0e714" style="fill: var(--color1, #f0e714)" d="M28 17.333c-0.354 0-0.693-0.14-0.943-0.39s-0.39-0.589-0.39-0.943c0.001-2.347-0.773-4.629-2.201-6.492s-3.432-3.202-5.699-3.809c-2.267-0.608-4.672-0.45-6.84 0.448s-3.98 2.488-5.153 4.521c-0.177 0.306-0.469 0.529-0.81 0.62s-0.706 0.043-1.012-0.134c-0.306-0.177-0.529-0.469-0.62-0.81s-0.043-0.706 0.134-1.012c1.467-2.541 3.732-4.527 6.442-5.649s5.716-1.319 8.55-0.559 5.338 2.434 7.123 4.762c1.786 2.328 2.753 5.181 2.752 8.115 0 0.354-0.14 0.693-0.39 0.943s-0.589 0.39-0.943 0.39zM26.5 29.333c-0.354 0-0.693-0.14-0.943-0.39s-0.39-0.589-0.39-0.943v-4.667h-4.667c-0.354 0-0.693-0.14-0.943-0.39s-0.39-0.589-0.39-0.943 0.14-0.693 0.39-0.943c0.25-0.25 0.589-0.391 0.943-0.391h6c0.354 0 0.693 0.14 0.943 0.391s0.39 0.589 0.39 0.943v6c0 0.354-0.14 0.693-0.39 0.943s-0.589 0.39-0.943 0.39z"></path>
<path fill="#f0e714" style="fill: var(--color1, #f0e714)" d="M16 29.333c-3.535-0.004-6.924-1.41-9.423-3.91s-3.906-5.889-3.91-9.424c0-0.354 0.14-0.693 0.391-0.943s0.589-0.39 0.943-0.39 0.693 0.14 0.943 0.39c0.25 0.25 0.391 0.589 0.391 0.943-0.001 2.347 0.773 4.629 2.201 6.492s3.432 3.202 5.699 3.809c2.267 0.608 4.672 0.45 6.84-0.448s3.98-2.488 5.153-4.521c0.088-0.151 0.204-0.284 0.343-0.391s0.298-0.184 0.467-0.23c0.169-0.045 0.346-0.056 0.519-0.034s0.341 0.080 0.492 0.168c0.151 0.088 0.284 0.204 0.391 0.343s0.184 0.298 0.23 0.467c0.045 0.169 0.056 0.346 0.034 0.519s-0.080 0.341-0.168 0.492c-1.173 2.022-2.855 3.701-4.878 4.871s-4.319 1.788-6.656 1.794z"></path>
</symbol>
<symbol id="icon-Frame-38510" viewBox="0 0 32 32">
<path fill="#24272e" style="fill: var(--color1, #24272e)" d="M16 0c8.837 0 16 7.163 16 16s-7.163 16-16 16c-8.837 0-16-7.163-16-16s7.163-16 16-16z"></path>
<path fill="#f0e714" style="fill: var(--color2, #f0e714)" d="M12.693 7.787c-0.149 0.032-0.436 0.14-0.637 0.239-0.891 0.44-1.489 1.408-1.489 2.412 0 1.523 1.314 2.782 2.824 2.707l0.342-0.017 0.567 1.267-0.271 0.293c-0.685 0.74-0.922 1.815-0.599 2.715 0.062 0.173 0.116 0.334 0.12 0.358s-0.474 0.474-1.064 1l-1.071 0.956-0.33-0.163c-2.024-1-4.321 0.788-3.853 2.999 0.164 0.774 0.721 1.493 1.425 1.841 0.819 0.404 1.642 0.405 2.458 0.003 1.178-0.58 1.778-2.046 1.339-3.267-0.062-0.173-0.116-0.335-0.12-0.359s0.476-0.475 1.067-1.001l1.075-0.957 0.327 0.163c0.556 0.277 1.159 0.355 1.764 0.226 0.304-0.064 0.743-0.25 0.963-0.406 0.083-0.059 0.144-0.076 0.178-0.051 0.441 0.336 1.806 1.395 1.848 1.433 0.046 0.042 0.039 0.1-0.036 0.323-0.054 0.16-0.1 0.429-0.113 0.654-0.1 1.779 1.525 3.168 3.277 2.802 1.218-0.255 2.142-1.399 2.142-2.653 0-1.001-0.601-1.978-1.486-2.414-0.862-0.425-1.769-0.397-2.605 0.082-0.177 0.101-0.311 0.153-0.34 0.132-0.299-0.226-1.801-1.391-1.843-1.429-0.046-0.042-0.039-0.099 0.035-0.32 0.050-0.148 0.102-0.434 0.115-0.636l0.024-0.366 1.1-0.363 0.066 0.1c0.036 0.055 0.194 0.225 0.351 0.379 1.046 1.024 2.735 1.005 3.779-0.041 1.071-1.074 1.071-2.754 0-3.828-1.064-1.067-2.753-1.066-3.822 0.002-0.5 0.5-0.802 1.203-0.804 1.87l-0.001 0.235-1.111 0.367-0.066-0.1c-0.036-0.055-0.196-0.227-0.356-0.384-0.516-0.505-1.248-0.783-1.972-0.747l-0.342 0.017-0.567-1.267 0.271-0.293c1.011-1.092 0.985-2.729-0.060-3.777-0.658-0.66-1.589-0.934-2.5-0.737zM13.697 9.148c0.324 0.105 0.595 0.334 0.77 0.653 0.141 0.256 0.152 0.302 0.151 0.637-0.001 0.329-0.013 0.384-0.145 0.628-0.161 0.298-0.294 0.427-0.614 0.593-0.185 0.096-0.269 0.113-0.578 0.112-0.295-0-0.4-0.019-0.573-0.103-0.44-0.214-0.736-0.645-0.775-1.132-0.077-0.948 0.854-1.681 1.763-1.388zM22.527 13.223c0.324 0.105 0.595 0.334 0.77 0.653 0.141 0.256 0.152 0.302 0.151 0.637-0.001 0.329-0.013 0.384-0.145 0.628-0.161 0.298-0.294 0.427-0.614 0.592-0.179 0.093-0.275 0.112-0.556 0.114-0.643 0.004-1.106-0.325-1.309-0.929-0.345-1.027 0.663-2.032 1.703-1.696zM16.414 15.261c0.342 0.111 0.603 0.337 0.774 0.672 0.135 0.264 0.148 0.324 0.146 0.635-0.002 0.274-0.022 0.382-0.101 0.535-0.165 0.319-0.326 0.489-0.606 0.64-0.245 0.132-0.297 0.144-0.628 0.143-0.434-0.002-0.685-0.104-0.962-0.393-0.234-0.244-0.36-0.518-0.386-0.84-0.077-0.948 0.855-1.683 1.763-1.39zM22.527 20.015c0.324 0.105 0.595 0.334 0.77 0.653 0.141 0.256 0.152 0.302 0.151 0.637-0.001 0.329-0.013 0.384-0.145 0.628-0.161 0.298-0.294 0.427-0.614 0.593-0.185 0.096-0.269 0.113-0.578 0.112-0.295-0-0.4-0.019-0.573-0.103-0.604-0.293-0.923-1.008-0.723-1.62 0.24-0.734 0.994-1.131 1.711-0.899zM10.458 20.756c0.257 0.122 0.504 0.37 0.652 0.654 0.094 0.181 0.111 0.269 0.112 0.575 0.001 0.33-0.011 0.383-0.143 0.628-0.161 0.298-0.294 0.427-0.614 0.593-0.185 0.096-0.269 0.113-0.578 0.112-0.295-0-0.4-0.019-0.573-0.103-1.103-0.535-1.011-2.099 0.149-2.52 0.267-0.097 0.72-0.069 0.995 0.062z"></path>
</symbol>
<symbol id="icon-Frame-38509" viewBox="0 0 32 32">
<path fill="#24272e" style="fill: var(--color1, #24272e)" d="M16 0c8.837 0 16 7.163 16 16s-7.163 16-16 16c-8.837 0-16-7.163-16-16s7.163-16 16-16z"></path>
<path fill="#f0e714" style="fill: var(--color2, #f0e714)" d="M19.222 6.682c0.104-0.046 0.559-0.059 2.069-0.060l1.935-0.002 0.148 0.1c0.081 0.055 0.194 0.167 0.249 0.25l0.101 0.15-0.012 1.985c-0.012 1.926-0.015 1.988-0.103 2.106-0.172 0.23-0.312 0.302-0.59 0.302s-0.418-0.072-0.59-0.302c-0.084-0.113-0.091-0.191-0.104-1.157l-0.013-1.036-2.29 2.287c-2.483 2.479-2.377 2.39-2.784 2.316-0.142-0.026-0.336-0.201-1.418-1.279l-1.253-1.249-2.586 2.265c-1.422 1.246-2.655 2.295-2.738 2.331-0.405 0.176-0.894-0.103-0.953-0.545-0.053-0.396-0.143-0.304 2.897-2.963 1.548-1.354 2.878-2.516 2.956-2.583 0.163-0.14 0.379-0.193 0.615-0.15 0.142 0.026 0.335 0.2 1.404 1.266l1.24 1.236 3.926-3.926h-0.978c-1.078 0-1.179-0.019-1.381-0.259-0.29-0.345-0.161-0.905 0.25-1.084zM19.924 13.701c-0.177 0.078-0.361 0.302-0.393 0.478-0.014 0.078-0.020 2.415-0.013 5.195 0.013 5.026 0.013 5.054 0.103 5.174 0.050 0.067 0.145 0.162 0.212 0.212 0.117 0.088 0.173 0.090 1.782 0.090s1.665-0.003 1.782-0.090c0.067-0.050 0.162-0.145 0.212-0.212 0.090-0.121 0.090-0.138 0.090-5.292s-0-5.171-0.090-5.292c-0.050-0.067-0.145-0.162-0.212-0.212-0.117-0.087-0.182-0.091-1.73-0.101-1.271-0.008-1.637 0.002-1.743 0.049zM14.308 15.105c-0.177 0.078-0.361 0.302-0.393 0.478-0.014 0.078-0.020 2.099-0.013 4.493 0.013 4.316 0.013 4.352 0.103 4.472 0.050 0.067 0.145 0.162 0.212 0.212 0.117 0.088 0.173 0.090 1.782 0.090s1.665-0.003 1.782-0.090c0.067-0.050 0.162-0.145 0.212-0.212 0.090-0.12 0.090-0.145 0.090-4.59s-0-4.469-0.090-4.59c-0.050-0.067-0.145-0.162-0.212-0.212-0.117-0.087-0.182-0.091-1.73-0.1-1.271-0.008-1.637 0.002-1.743 0.049zM22.318 19.256v4.212h-1.404v-8.424h1.404v4.212zM16.702 19.958v3.51h-1.404v-7.020h1.404v3.51zM8.693 17.211c-0.177 0.078-0.361 0.302-0.393 0.478-0.014 0.078-0.020 1.626-0.013 3.44 0.013 3.253 0.014 3.3 0.103 3.419 0.050 0.067 0.145 0.162 0.212 0.212 0.117 0.088 0.173 0.090 1.782 0.090s1.665-0.003 1.782-0.090c0.067-0.050 0.162-0.145 0.212-0.212 0.090-0.12 0.090-0.155 0.090-3.537s-0.001-3.417-0.090-3.537c-0.050-0.067-0.145-0.162-0.212-0.212-0.117-0.087-0.182-0.091-1.73-0.101-1.271-0.008-1.637 0.002-1.743 0.049zM11.086 21.011v2.457h-1.404v-4.914h1.404v2.457z"></path>
</symbol>
<symbol id="icon-Frame-38508" viewBox="0 0 32 32">
<path fill="#24272e" style="fill: var(--color1, #24272e)" d="M16 0c8.837 0 16 7.163 16 16s-7.163 16-16 16c-8.837 0-16-7.163-16-16s7.163-16 16-16z"></path>
<path fill="#f0e714" style="fill: var(--color2, #f0e714)" d="M21.224 7.189c-0.035 0.015-1.415 0.778-3.067 1.696l-3.004 1.669h-3.087c-2.635 0-3.123 0.010-3.336 0.065-0.732 0.191-1.296 0.756-1.487 1.492-0.095 0.364-0.093 4.674 0.002 5.039 0.191 0.732 0.756 1.296 1.492 1.487 0.155 0.041 0.443 0.063 0.797 0.063h0.553l0.966 2.9c1.025 3.077 1.014 3.051 1.317 3.165 0.191 0.072 3.049 0.061 3.225-0.013 0.18-0.075 0.357-0.289 0.392-0.471 0.026-0.139-0.61-4.149-0.708-4.465-0.090-0.292-0.448-0.481-0.788-0.417-0.207 0.039-0.463 0.293-0.501 0.499-0.020 0.106 0.058 0.673 0.251 1.831 0.154 0.922 0.28 1.688 0.28 1.7s-0.32 0.023-0.711 0.023h-0.711l-1.583-4.752h3.638l3.025 1.685c2.979 1.66 3.028 1.685 3.266 1.687 0.26 0.001 0.397-0.069 0.563-0.291 0.085-0.113 0.088-0.175 0.1-1.97l0.012-1.853 0.369-0.115c1.171-0.366 2.041-1.362 2.282-2.614 0.315-1.635-0.693-3.32-2.282-3.816l-0.369-0.115-0.012-1.853c-0.012-1.795-0.015-1.857-0.1-1.97-0.145-0.195-0.296-0.282-0.514-0.297-0.113-0.008-0.233-0.002-0.268 0.013zM20.757 14.622v5.638l-4.75-2.639-0.012-2.299c-0.011-2.247-0.014-2.302-0.099-2.417-0.166-0.223-0.302-0.292-0.57-0.292s-0.404 0.069-0.57 0.292c-0.085 0.114-0.088 0.171-0.099 2.279l-0.012 2.162-2.839-0.011c-2.792-0.011-2.84-0.013-2.956-0.099-0.064-0.048-0.157-0.14-0.205-0.205-0.086-0.115-0.087-0.16-0.087-2.402s0.002-2.287 0.087-2.402c0.048-0.064 0.14-0.157 0.205-0.205 0.116-0.086 0.16-0.088 3.392-0.1l3.274-0.012 2.609-1.457c1.435-0.802 2.614-1.46 2.62-1.462s0.011 2.532 0.011 5.633zM22.379 12.829c0.12 0.061 0.328 0.215 0.46 0.341 0.836 0.797 0.836 2.117 0 2.914-0.198 0.189-0.607 0.452-0.702 0.452-0.012 0-0.023-0.859-0.023-1.909s0.010-1.909 0.023-1.909c0.013 0 0.121 0.050 0.242 0.111z"></path>
</symbol>
<symbol id="icon-Frame-38512" viewBox="0 0 32 32">
<path fill="#24272e" style="fill: var(--color1, #24272e)" d="M16 0c8.837 0 16 7.163 16 16s-7.163 16-16 16c-8.837 0-16-7.163-16-16s7.163-16 16-16z"></path>
<path fill="#f0e714" style="fill: var(--color2, #f0e714)" d="M10.41 8.468c-1.59 0.71-2.939 1.327-2.999 1.371s-0.138 0.142-0.174 0.218c-0.060 0.126-0.065 0.712-0.065 7.199 0 6.465 0.005 7.073 0.065 7.198 0.089 0.188 0.295 0.335 0.502 0.358 0.158 0.018 0.389-0.077 2.944-1.213l2.772-1.232 2.455 1.227c1.877 0.938 2.489 1.227 2.599 1.227 0.104 0 0.957-0.361 3.044-1.287 1.595-0.708 2.955-1.328 3.023-1.377 0.272-0.2 0.252 0.4 0.252-7.424 0-6.465-0.006-7.073-0.065-7.198-0.089-0.188-0.294-0.335-0.502-0.358-0.158-0.018-0.389 0.077-2.944 1.213l-2.772 1.232-2.455-1.227c-2.132-1.066-2.477-1.227-2.623-1.223-0.129 0.004-0.838 0.304-3.058 1.296zM12.847 15.023v6.24l-2.138 0.95c-1.176 0.522-2.169 0.962-2.207 0.976-0.066 0.025-0.069-0.287-0.069-6.218v-6.244l2.177-0.97c1.198-0.533 2.191-0.971 2.207-0.972s0.030 2.806 0.030 6.238zM23.566 15.023v6.24l-2.138 0.95c-1.176 0.522-2.169 0.962-2.207 0.976-0.066 0.025-0.069-0.287-0.069-6.218v-6.244l2.177-0.97c1.198-0.533 2.191-0.971 2.207-0.972s0.030 2.806 0.030 6.238zM17.891 16.941v6.226l-3.783-1.892v-12.453l3.783 1.892v6.226z"></path>
</symbol>
<symbol id="icon-Frame-38498" viewBox="0 0 32 32">
<path fill="#24272e" style="fill: var(--color1, #24272e)" d="M16 0c8.837 0 16 7.163 16 16s-7.163 16-16 16c-8.837 0-16-7.163-16-16s7.163-16 16-16z"></path>
<path fill="#f0e714" style="fill: var(--color2, #f0e714)" d="M15.745 6.087c-0.082 0.018-0.197 0.053-0.255 0.077s-1.829 1.014-3.935 2.199c-2.688 1.513-3.882 2.207-4.007 2.329-0.098 0.096-0.223 0.272-0.277 0.392l-0.098 0.217v9.062l0.115 0.234c0.063 0.129 0.188 0.305 0.277 0.392 0.102 0.1 1.579 0.955 4.025 2.331 2.95 1.66 3.928 2.191 4.137 2.245 0.485 0.127 0.394 0.171 4.667-2.233 2.307-1.298 3.91-2.225 4.018-2.324 0.099-0.091 0.233-0.273 0.298-0.405l0.118-0.24v-9.062l-0.1-0.222c-0.055-0.122-0.189-0.304-0.298-0.405-0.136-0.126-1.399-0.858-4.026-2.333-2.106-1.182-3.879-2.171-3.939-2.196-0.156-0.066-0.543-0.097-0.719-0.057zM19.353 9.307c1.818 1.021 3.328 1.878 3.355 1.904 0.037 0.035-0.786 0.522-3.248 1.919-1.814 1.030-3.325 1.878-3.359 1.886-0.073 0.017-6.829-3.74-6.813-3.788 0.015-0.045 6.634-3.772 6.704-3.775 0.031-0.002 1.543 0.833 3.361 1.854zM12.235 14.469c1.731 0.965 3.151 1.757 3.154 1.76 0.017 0.017-0.067 7.569-0.084 7.586-0.011 0.011-1.544-0.838-3.406-1.885l-3.387-1.905v-7.635l0.287 0.162c0.158 0.089 1.704 0.952 3.435 1.917zM23.488 16.228v3.8l-3.386 1.905c-1.862 1.048-3.392 1.898-3.401 1.89-0.026-0.026 0.055-7.569 0.081-7.595 0.039-0.039 6.638-3.792 6.674-3.795 0.018-0.002 0.032 1.707 0.032 3.797z"></path>
</symbol>
<symbol id="icon-Frame-38511" viewBox="0 0 32 32">
<path fill="#24272e" style="fill: var(--color1, #24272e)" d="M16 0c8.837 0 16 7.163 16 16s-7.163 16-16 16c-8.837 0-16-7.163-16-16s7.163-16 16-16z"></path>
<path fill="#f0e714" style="fill: var(--color2, #f0e714)" d="M9.882 9.989c-0.124 0.030-0.319 0.102-0.432 0.159-0.265 0.134-0.662 0.531-0.795 0.794-0.223 0.44-0.22 0.391-0.221 4.253l-0.001 3.553-0.427 0.013c-0.392 0.012-0.438 0.022-0.566 0.119-0.247 0.188-0.268 0.282-0.268 1.161 0.001 0.856 0.041 1.126 0.221 1.482 0.133 0.263 0.53 0.66 0.794 0.794 0.457 0.232 0.064 0.22 7.798 0.221 4.666 0 7.171-0.013 7.311-0.040 0.352-0.067 0.686-0.248 0.959-0.522 0.475-0.475 0.572-0.802 0.573-1.935 0.001-0.879-0.021-0.972-0.268-1.161-0.128-0.098-0.174-0.107-0.566-0.119l-0.427-0.013-0.001-3.553c-0.001-3.847 0.001-3.814-0.215-4.241-0.054-0.106-0.198-0.301-0.32-0.433-0.251-0.271-0.644-0.49-0.997-0.555-0.136-0.025-2.323-0.038-6.069-0.036-4.854 0.003-5.896 0.013-6.083 0.058zM22.015 11.29c0.060 0.045 0.145 0.13 0.19 0.19 0.081 0.108 0.081 0.143 0.092 3.692l0.010 3.584h-12.613v-3.525c0-2.401 0.013-3.56 0.042-3.636 0.056-0.148 0.187-0.286 0.332-0.351 0.097-0.043 1.155-0.051 5.978-0.044 5.85 0.008 5.86 0.009 5.968 0.090zM10.325 14.973v3.153h11.35v-6.306h-11.351v3.153zM20.414 14.973v1.892h-8.828v-3.784h8.828v1.892zM13.493 20.142c0.034 0.17 0.189 0.363 0.353 0.441 0.121 0.057 0.365 0.065 2.154 0.065s2.033-0.007 2.154-0.065c0.165-0.078 0.319-0.271 0.353-0.441l0.025-0.125h5.042l-0.013 0.431c-0.014 0.465-0.049 0.553-0.285 0.729l-0.109 0.081h-14.334l-0.109-0.081c-0.236-0.176-0.27-0.264-0.285-0.729l-0.013-0.431h5.042l0.025 0.125z"></path>
</symbol>
<symbol id="icon-Frame-384983" viewBox="0 0 32 32">
<path fill="#24272e" style="fill: var(--color1, #24272e)" d="M16 0c8.837 0 16 7.163 16 16s-7.163 16-16 16c-8.837 0-16-7.163-16-16s7.163-16 16-16z"></path>
<path fill="#f0e714" style="fill: var(--color2, #f0e714)" d="M13.368 7.237c-0.152 0.033-0.438 0.139-0.635 0.237-1.265 0.624-1.839 2.229-1.255 3.505 0.059 0.129 0.108 0.242 0.108 0.251s-0.444 0.016-0.987 0.017c-1.154 0.001-1.402 0.040-1.939 0.305-0.889 0.439-1.487 1.408-1.487 2.411 0 0.621 0.271 1.335 0.682 1.796l0.215 0.241-0.218 0.244c-0.944 1.055-0.889 2.693 0.124 3.706 0.796 0.796 2.010 1.027 3.004 0.572 0.129-0.059 0.242-0.108 0.251-0.108s0.016 0.444 0.017 0.987c0.001 1.154 0.040 1.402 0.305 1.939 0.439 0.889 1.408 1.487 2.411 1.487 0.628 0 1.333-0.266 1.793-0.678l0.244-0.218 0.244 0.218c1.055 0.944 2.693 0.889 3.706-0.124 0.796-0.796 1.027-2.010 0.572-3.004-0.059-0.129-0.108-0.242-0.108-0.251s0.444-0.016 0.987-0.017c1.154-0.001 1.41-0.041 1.941-0.302 0.884-0.436 1.486-1.413 1.486-2.414 0-0.621-0.271-1.335-0.682-1.796l-0.215-0.241 0.218-0.244c0.944-1.056 0.889-2.693-0.124-3.706-0.796-0.796-2.010-1.027-3.004-0.572-0.129 0.059-0.242 0.108-0.251 0.108s-0.016-0.444-0.017-0.987c-0.001-1.154-0.040-1.402-0.305-1.939-0.441-0.894-1.402-1.487-2.411-1.487-0.621 0-1.335 0.271-1.796 0.682l-0.241 0.215-0.244-0.218c-0.621-0.555-1.549-0.794-2.388-0.614zM14.539 8.658c0.264 0.128 0.524 0.388 0.657 0.657 0.098 0.199 0.105 0.259 0.118 1.074l0.014 0.863-0.863-0.014c-0.815-0.013-0.874-0.020-1.074-0.118-0.756-0.372-1.011-1.287-0.552-1.983 0.159-0.241 0.446-0.462 0.717-0.55 0.259-0.085 0.732-0.051 0.984 0.071zM18.452 8.598c0.324 0.105 0.595 0.334 0.77 0.653l0.152 0.276v4.797l-0.145 0.267c-0.161 0.297-0.294 0.426-0.614 0.594-0.211 0.111-0.241 0.114-1.076 0.129l-0.86 0.015v-2.825c0-2.496 0.008-2.849 0.069-3.028 0.245-0.721 0.994-1.107 1.704-0.877zM14.377 12.673c0.324 0.105 0.595 0.334 0.77 0.653l0.152 0.276 0.014 0.861 0.014 0.861-5.802-0.024-0.212-0.105c-1.103-0.546-1.010-2.114 0.149-2.52 0.164-0.057 0.508-0.067 2.446-0.069 1.964-0.002 2.283 0.007 2.468 0.067zM22.689 12.733c0.264 0.128 0.524 0.389 0.657 0.657 0.149 0.303 0.149 0.841 0 1.144-0.132 0.269-0.392 0.529-0.661 0.661-0.199 0.098-0.259 0.105-1.071 0.118l-0.86 0.014v-0.782c0-0.538 0.018-0.842 0.058-0.974 0.122-0.406 0.486-0.776 0.893-0.91 0.259-0.085 0.732-0.051 0.984 0.071zM11.238 17.539c-0.013 0.812-0.020 0.871-0.118 1.071-0.133 0.269-0.392 0.529-0.661 0.661-0.174 0.086-0.275 0.104-0.572 0.104s-0.398-0.018-0.572-0.104c-0.756-0.372-1.011-1.287-0.552-1.983 0.16-0.243 0.449-0.464 0.717-0.548 0.114-0.036 0.449-0.055 0.973-0.057l0.799-0.003-0.014 0.86zM15.312 19.576l-0.012 2.897-0.145 0.267c-0.162 0.298-0.295 0.427-0.614 0.593-0.185 0.096-0.269 0.113-0.578 0.112-0.295-0-0.4-0.019-0.573-0.103-0.269-0.131-0.524-0.385-0.659-0.657l-0.105-0.212-0.012-2.313c-0.011-2.037-0.004-2.338 0.057-2.523 0.139-0.425 0.447-0.739 0.868-0.887 0.146-0.051 0.376-0.067 0.988-0.069l0.797-0.002-0.012 2.897zM22.527 16.748c0.324 0.105 0.595 0.334 0.77 0.653 0.141 0.257 0.152 0.301 0.15 0.637-0.001 0.306-0.019 0.394-0.114 0.578-0.166 0.32-0.295 0.453-0.593 0.614l-0.267 0.145h-4.797l-0.212-0.105c-0.271-0.134-0.525-0.389-0.659-0.659-0.099-0.201-0.106-0.258-0.119-1.072l-0.014-0.86h2.821c2.481 0 2.847 0.008 3.033 0.069zM18.609 20.879c0.269 0.133 0.529 0.392 0.661 0.661 0.086 0.174 0.104 0.275 0.104 0.572 0 0.425-0.099 0.675-0.381 0.956s-0.531 0.381-0.956 0.381c-0.297 0-0.398-0.018-0.572-0.104-0.269-0.132-0.529-0.392-0.661-0.661-0.098-0.199-0.105-0.259-0.118-1.074l-0.014-0.863 0.863 0.014c0.815 0.013 0.874 0.020 1.074 0.118z"></path>
</symbol>
<symbol id="icon-Frame-384982" viewBox="0 0 32 32">
<path fill="#24272e" style="fill: var(--color1, #24272e)" d="M16 0c8.837 0 16 7.163 16 16s-7.163 16-16 16c-8.837 0-16-7.163-16-16s7.163-16 16-16z"></path>
<path fill="#f0e714" style="fill: var(--color2, #f0e714)" d="M15.088 7.219c-3.516 0.366-6.529 2.858-7.539 6.237-1.594 5.331 2.057 10.778 7.597 11.335 2.902 0.292 5.829-0.925 7.685-3.196 2.664-3.26 2.664-7.924 0-11.184-1.864-2.282-4.813-3.498-7.742-3.193zM16.431 8.874c0.695 0.354 1.39 1.574 1.803 3.16 0.079 0.304 0.144 0.557 0.144 0.563s-1.070 0.011-2.378 0.011h-2.379l0.026-0.117c0.242-1.081 0.664-2.157 1.094-2.792 0.568-0.838 1.128-1.112 1.69-0.825zM13.403 9.278c-0.407 0.692-0.714 1.493-0.991 2.585l-0.183 0.722-2.89 0.022 0.139-0.245c0.743-1.312 1.845-2.361 3.2-3.044 0.297-0.15 0.819-0.376 0.933-0.405 0.005-0.001-0.089 0.162-0.207 0.363zM19.187 9.242c1.135 0.515 2.303 1.529 3.044 2.643 0.196 0.295 0.393 0.645 0.393 0.699 0 0.013-0.65 0.023-1.444 0.023-1.363 0-1.444-0.004-1.444-0.077 0-0.042-0.066-0.343-0.146-0.669-0.246-1-0.595-1.906-0.992-2.582l-0.214-0.364 0.262 0.1c0.144 0.055 0.387 0.157 0.54 0.226zM11.995 14.274c-0.052 0.4-0.052 3.061 0 3.461l0.040 0.308h-3.213l-0.041-0.109c-0.184-0.485-0.298-1.899-0.214-2.672 0.048-0.449 0.185-1.169 0.238-1.254 0.015-0.025 0.646-0.041 1.628-0.041h1.603l-0.040 0.308zM18.61 14.061c0.043 0.197 0.108 1.365 0.108 1.95s-0.058 1.606-0.107 1.892l-0.024 0.138h-5.175l-0.021-0.096c-0.044-0.198-0.108-1.366-0.108-1.95 0-0.598 0.064-1.748 0.107-1.935l0.022-0.095h5.177l0.021 0.095zM23.251 14.199c0.158 0.633 0.197 0.991 0.197 1.805s-0.039 1.172-0.197 1.805l-0.053 0.212-3.232 0.022 0.040-0.308c0.052-0.4 0.052-3.061 0-3.462l-0.040-0.308 3.232 0.022 0.053 0.212zM12.412 20.144c0.277 1.091 0.584 1.894 0.989 2.582l0.213 0.362-0.282-0.106c-1.575-0.592-2.999-1.824-3.855-3.337l-0.139-0.245 2.89 0.022 0.183 0.722zM18.363 19.475c-0.012 0.041-0.081 0.304-0.155 0.584-0.403 1.537-1.088 2.718-1.787 3.083-0.252 0.131-0.588 0.131-0.84 0-0.705-0.367-1.424-1.621-1.813-3.162-0.060-0.237-0.118-0.464-0.13-0.505-0.020-0.070 0.113-0.074 2.362-0.074s2.382 0.004 2.362 0.074zM22.624 19.424c0 0.054-0.197 0.404-0.393 0.699-0.862 1.295-2.158 2.332-3.584 2.87l-0.262 0.099 0.214-0.364c0.398-0.676 0.746-1.581 0.992-2.582 0.080-0.326 0.146-0.627 0.146-0.669 0-0.072 0.081-0.077 1.444-0.077 0.794 0 1.444 0.010 1.444 0.023z"></path>
</symbol>
<symbol id="icon-Vector8" viewBox="0 0 48 32">
<path d="M0 16c0-0.471 0.181-0.924 0.502-1.257s0.757-0.521 1.212-0.521h40.43l-10.789-11.184c-0.322-0.334-0.503-0.786-0.503-1.258s0.181-0.925 0.503-1.258c0.322-0.334 0.759-0.521 1.214-0.521s0.892 0.188 1.214 0.521l13.713 14.22c0.16 0.165 0.286 0.361 0.373 0.577s0.131 0.447 0.131 0.681-0.044 0.465-0.131 0.681c-0.086 0.216-0.213 0.412-0.373 0.577l-13.713 14.22c-0.322 0.334-0.758 0.521-1.214 0.521s-0.892-0.188-1.214-0.521-0.503-0.786-0.503-1.259c0-0.472 0.181-0.925 0.503-1.259l10.789-11.184h-40.43c-0.455 0-0.891-0.187-1.212-0.521s-0.502-0.785-0.502-1.257v0z"></path>
</symbol>
<symbol id="icon-circle-right" viewBox="0 0 32 32">
<path d="M16 0c-8.837 0-16 7.163-16 16s7.163 16 16 16 16-7.163 16-16-7.163-16-16-16zM16 29c-7.18 0-13-5.82-13-13s5.82-13 13-13 13 5.82 13 13-5.82 13-13 13z"></path>
<path d="M11.086 22.086l2.829 2.829 8.914-8.914-8.914-8.914-2.828 2.828 6.086 6.086z"></path>
</symbol>
<symbol id="icon-circle-left" viewBox="0 0 32 32">
<path d="M16 32c8.837 0 16-7.163 16-16s-7.163-16-16-16-16 7.163-16 16 7.163 16 16 16zM16 3c7.18 0 13 5.82 13 13s-5.82 13-13 13-13-5.82-13-13 5.82-13 13-13z"></path>
<path d="M20.914 9.914l-2.829-2.829-8.914 8.914 8.914 8.914 2.828-2.828-6.086-6.086z"></path>
</symbol>
</defs>
</svg>